<svg xmlns="http://www.w3.org/2000/svg" viewBox="0 0 512 512"><path d="M354 31.6H57.9C26 31.6 0 57.6 0 89.5V349c0 12.3 13.9 19.2 23.7 12.2l82.5-58.8c6.9-4.9 15.1-7.5 23.6-7.5h181.4c31.9 0 57.9-26 57.9-57.9V46.6c-.1-8.3-6.8-15-15.1-15zm-72.8 181.7H107.9c-8.3 0-15-6.7-15-15s6.7-15 15-15h173.3c8.3 0 15 6.7 15 15s-6.8 15-15 15zm0-70H107.9c-8.3 0-15-6.7-15-15s6.7-15 15-15h173.3c8.3 0 15 6.7 15 15s-6.8 15-15 15z"/><path class="st0" fill="#FFDA33" d="M512 205.9v259.5c0 12.2-13.8 19.3-23.7 12.2l-82.5-58.8c-6.9-4.9-15.1-7.5-23.6-7.5H200.9c-31.9 0-57.9-26-57.9-57.9V325h168.2c48.5 0 87.9-39.4 87.9-87.9v-89h55.1c31.8-.1 57.8 25.8 57.8 57.8z"/></svg>
